<svg xmlns="http://www.w3.org/2000/svg" width="19" height="14" fill="none" viewBox="0 0 19 14"><rect width="8" height="4" x="10.5" y=".5" stroke="#728baf" rx=".5"/><rect width="8" height="4" x="10.5" y="9.5" stroke="#728baf" rx=".5"/><rect width="8" height="4" x=".5" y="9.5" stroke="#728baf" rx=".5"/><rect width="1" height="6" x="14" y="4" fill="#728baf"/><path fill="#728baf" fill-rule="evenodd" d="M14.5 7C14.7761 7 15 6.77614 15 6.5V6.5C15 6.22386 14.7761 6 14.5 6H5C4.44772 6 4 6.44772 4 7V7V9.5C4 9.77614 4.22386 10 4.5 10V10C4.77614 10 5 9.77614 5 9.5V8C5 7.44772 5.44772 7 6 7L14.5 7Z" clip-rule="evenodd"/></svg>