<svg xmlns="http://www.w3.org/2000/svg" width="99" height="94" fill="none" viewBox="0 0 99 94"><path fill="#FFDFAA" d="M36.7296 6.45276L56.442 21.3016L33.7264 30.9486L36.7296 6.45276Z"/><mask id="mask0_44_361" style="mask-type:alpha" width="44" height="48" x="20" y="11" maskUnits="userSpaceOnUse"><path fill="#D9D9D9" stroke="#A2B8F2" d="M20.9523 57.9005L25.578 12.2016L62.8416 39.0571L20.9523 57.9005Z"/></mask><g mask="url(#mask0_44_361)"><path stroke="#FFAF2B" stroke-miterlimit="10" stroke-width=".5" d="M22.7485 2.87354L111.461 -3.26773"/><path stroke="#FFAF2B" stroke-miterlimit="10" stroke-width=".5" d="M20.9983 4.88025L109.71 -1.26102"/><path stroke="#FFAF2B" stroke-miterlimit="10" stroke-width=".5" d="M19.3728 6.74268L108.085 0.60141"/><path stroke="#FFAF2B" stroke-miterlimit="10" stroke-width=".5" d="M15.8723 10.7552L104.709 4.47067"/><path stroke="#FFAF2B" stroke-miterlimit="10" stroke-width=".5" d="M12.4968 14.6248L101.209 8.48349"/><path stroke="#FFAF2B" stroke-miterlimit="10" stroke-width=".5" d="M7.37109 20.5002L96.0832 14.359"/><path stroke="#FFAF2B" stroke-miterlimit="10" stroke-width=".5" d="M2.24536 26.3757L91.0825 20.0912"/><path stroke="#FFAF2B" stroke-miterlimit="10" stroke-width=".5" d="M-2.75537 32.1077L85.9567 25.9664"/><path stroke="#FFAF2B" stroke-miterlimit="10" stroke-width=".5" d="M-7.88135 37.9827L80.8307 31.8414"/><path stroke="#FFAF2B" stroke-miterlimit="10" stroke-width=".5" d="M-13.0071 43.8582L75.705 37.7169"/><path stroke="#FFAF2B" stroke-miterlimit="10" stroke-width=".5" d="M-18.1328 49.7339L70.5793 43.5926"/><path stroke="#FFAF2B" stroke-miterlimit="10" stroke-width=".5" d="M-23.2588 55.6091L65.4533 49.4679"/><path stroke="#FFAF2B" stroke-miterlimit="10" stroke-width=".5" d="M17.6226 8.7489L106.335 2.60763"/><path stroke="#FFAF2B" stroke-miterlimit="10" stroke-width=".5" d="M14.2473 12.6184L102.959 6.47714"/><path stroke="#FFAF2B" stroke-miterlimit="10" stroke-width=".5" d="M9.12134 18.4939L97.8334 12.3526"/><path stroke="#FFAF2B" stroke-miterlimit="10" stroke-width=".5" d="M3.99561 24.3691L92.7077 18.2279"/><path stroke="#FFAF2B" stroke-miterlimit="10" stroke-width=".5" d="M0.620117 28.238L89.3322 22.0968"/><path stroke="#FFAF2B" stroke-miterlimit="10" stroke-width=".5" d="M-6.25586 36.1204L82.5813 29.8358"/><path stroke="#FFAF2B" stroke-miterlimit="10" stroke-width=".5" d="M-11.2568 41.8518L77.4553 35.7105"/><path stroke="#FFAF2B" stroke-miterlimit="10" stroke-width=".5" d="M-14.7571 45.8647L73.955 39.7235"/><path stroke="#FFAF2B" stroke-miterlimit="10" stroke-width=".5" d="M-21.5083 53.6028L67.2038 47.4615"/><path stroke="#FFAF2B" stroke-miterlimit="10" stroke-width=".5" d="M-26.6343 59.4785L62.0778 53.3373"/><path stroke="#FFAF2B" stroke-miterlimit="10" stroke-width=".5" d="M-28.3845 61.4844L60.4526 55.1998"/><path stroke="#FFAF2B" stroke-miterlimit="10" stroke-width=".5" d="M-33.385 67.2168L55.3271 61.0755"/><path stroke="#FFAF2B" stroke-miterlimit="10" stroke-width=".5" d="M10.8718 16.4878L99.5839 10.3465"/><path stroke="#FFAF2B" stroke-miterlimit="10" stroke-width=".5" d="M5.74585 22.363L94.4579 16.2218"/><path stroke="#FFAF2B" stroke-miterlimit="10" stroke-width=".5" d="M-1.13013 30.2446L87.582 24.1034"/><path stroke="#FFAF2B" stroke-miterlimit="10" stroke-width=".5" d="M-4.50562 34.1138L84.2065 27.9725"/><path stroke="#FFAF2B" stroke-miterlimit="10" stroke-width=".5" d="M-9.63135 39.9893L79.0807 33.848"/><path stroke="#FFAF2B" stroke-miterlimit="10" stroke-width=".5" d="M-16.3826 47.7275L72.3295 41.5863"/><path stroke="#FFAF2B" stroke-miterlimit="10" stroke-width=".5" d="M-19.8831 51.74L68.9541 45.4554"/><path stroke="#FFAF2B" stroke-miterlimit="10" stroke-width=".5" d="M-24.884 57.4719L63.8281 51.3307"/><path stroke="#FFAF2B" stroke-miterlimit="10" stroke-width=".5" d="M-30.0095 63.3479L58.7026 57.2066"/><path stroke="#FFAF2B" stroke-miterlimit="10" stroke-width=".5" d="M-31.76 65.3538L56.9521 59.2125"/><path stroke="#FFAF2B" stroke-miterlimit="10" stroke-width=".5" d="M-35.1353 69.2231L53.5768 63.0819"/><path stroke="#FFAF2B" stroke-miterlimit="10" stroke-width=".5" d="M-36.8855 71.2295L51.8266 65.0882"/></g><circle cx="56.447" cy="78.007" r="8.842" fill="#7547DE" transform="rotate(15 56.447 78.0067)"/><path fill="#7547DE" fill-rule="evenodd" d="M65.164 76.3389C63.0084 78.7083 59.6365 79.8197 56.3292 78.9335C52.9243 78.0212 50.5187 75.241 49.9194 71.9908C49.0008 73.0005 48.3031 74.2387 47.9255 75.6481C46.6617 80.3648 49.4607 85.213 54.1774 86.4768C58.8941 87.7406 63.7423 84.9415 65.0061 80.2249C65.3576 78.9131 65.3948 77.5911 65.164 76.3389Z" clip-rule="evenodd"/><circle cx="58.428" cy="70.112" r="8.842" fill="#9E7EE8" transform="rotate(15 58.4277 70.1124)"/><ellipse cx="63.812" cy="50.523" fill="#FFAF2B" rx="25.549" ry="25.549" transform="rotate(15 63.8116 50.5227)"/><g clip-path="url(#clip0_44_361)"><path fill="#292F47" d="M64.6256 27.6548C63.9741 27.6548 63.3303 27.6831 62.6917 27.7373C74.4139 28.7195 83.6203 38.5548 83.6203 50.5428C83.6203 62.5308 74.4139 72.3636 62.6917 73.3458C63.3303 73.3999 63.9741 73.4283 64.6256 73.4283C77.2518 73.4283 87.4882 63.1805 87.4882 50.5403C87.4882 37.9 77.2518 27.6548 64.6256 27.6548Z"/></g><path stroke="#292F47" stroke-width="1.5" d="M56.0166 49.1111L54.1094 74.064M67.8283 56.3938L59.5788 75.8201"/><path stroke="#292F47" stroke-linecap="round" stroke-miterlimit="10" stroke-width="1.5" d="M75.7362 56.3531C75.9191 58.7381 73.9299 58.1658 73.9299 58.1658C70.4649 57.2414 70.4361 52.5878 71.4723 51.9855C72.5086 51.3833 72.6087 52.5413 72.5031 53.1487C72.3975 53.7561 71.9081 54.2183 71.4451 54.6271C70.3708 55.5764 68.9238 56.7739 67.6356 56.1432C66.0371 55.3536 64.7271 52.8664 64.5444 51.662C64.3616 50.4576 65.6302 49.2163 66.3747 48.991C67.1192 48.7656 67.4005 49.287 67.3701 49.8097C67.3397 50.3323 66.9436 50.7519 66.5717 51.1225C65.2546 52.4396 63.3592 53.8591 61.7155 52.9696C59.8368 51.8477 59.0185 47.7464 60.5567 46.1616C61.3667 45.3201 62.6374 45.6041 62.2171 46.8598C61.5707 49.0569 58.8666 50.3818 56.7268 49.5522C54.587 48.7225 53.4845 45.9165 54.4835 43.8602C54.7058 43.4102 55.0372 42.9753 55.5127 42.8111C55.9882 42.6469 56.6173 42.8689 56.7492 43.3553C56.888 43.8728 56.4544 44.3571 56.0221 44.6701C54.0113 46.1545 48.4314 47.5777 50.201 44.0175"/><defs><clipPath id="clip0_44_361"><rect width="24.794" height="45.773" fill="#fff" transform="translate(62.6917 27.6548)"/></clipPath></defs></svg>