<svg xmlns="http://www.w3.org/2000/svg" id="Ico_btn" width="20" height="20" viewBox="0 0 20 20"><rect id="Rectangle_16996" width="20" height="20" fill="none" data-name="Rectangle 16996"/><path id="Path_10266" fill="#dfe5ef" d="M19610,2876h0v-9l0,0h-2l0-2h-3v2h-4v-2h-3v2h-2s0,0,0,.006v9h14m0,1h-14a1,1,0,0,1-1-1v-9a1,1,0,0,1,1-1h1v-1a1,1,0,0,1,1-1h3a1,1,0,0,1,1,1v1h2v-1a1,1,0,0,1,1-1h3a1,1,0,0,1,1,1v1h1a1,1,0,0,1,1,1v9A1,1,0,0,1,19610,2877Z" data-name="Path 10266" transform="translate(-19593 -2861)"/></svg>