<svg xmlns="http://www.w3.org/2000/svg" id="Ico_btn" width="20" height="20" viewBox="0 0 20 20"><rect id="Rectangle_16996" width="20" height="20" fill="none" data-name="Rectangle 16996"/><g id="Group_6990" data-name="Group 6990"><path id="Path_10265" fill="#dfe5ef" d="M19606,2878a1,1,0,0,1-1-1v-12a1,1,0,0,1,1-1h2a1,1,0,0,1,1,1v12a1,1,0,0,1-1,1Zm0-1h2v-12h-2Zm-5,1a1,1,0,0,1-1-1v-12a1,1,0,0,1,1-1h2a1,1,0,0,1,1,1v12a1,1,0,0,1-1,1Zm0-1h2v-12h-2Zm-5,1a1,1,0,0,1-1-1v-12a1,1,0,0,1,1-1h2a1,1,0,0,1,1,1v12a1,1,0,0,1-1,1Zm0-1h2v-12h-2Z" data-name="Path 10265" transform="translate(-19592 -2861)"/></g></svg>