<svg xmlns="http://www.w3.org/2000/svg" id="Layer_1" x="0" y="0" fill="#385985" version="1.1" viewBox="0 0 26.5 24.5" xml:space="preserve"><path d="M3.8 24.5H0V0h3.8v1.5H1.5V23h2.3zM26.5 24.5h-3.7V23H25V1.5h-2.2V0h3.7z" class="st0"/><g><path d="M19.2 5.2c.6 0 1 .4 1 1s-.4 1-1 1-1-.4-1-1 .5-1 1-1m0-1c-1.1 0-2 .9-2 2s.9 2 2 2 2-.9 2-2-.8-2-2-2zM19.2 11.2c.6 0 1 .4 1 1s-.4 1-1 1-1-.4-1-1 .5-1 1-1m0-1c-1.1 0-2 .9-2 2s.9 2 2 2 2-.9 2-2-.8-2-2-2zM19.2 17.2c.6 0 1 .4 1 1s-.4 1-1 1-1-.4-1-1 .5-1 1-1m0-1c-1.1 0-2 .9-2 2s.9 2 2 2 2-.9 2-2-.8-2-2-2zM13.2 5.2c.6 0 1 .4 1 1s-.4 1-1 1-1-.4-1-1 .5-1 1-1m0-1c-1.1 0-2 .9-2 2s.9 2 2 2 2-.9 2-2-.8-2-2-2z" class="st0"/><circle cx="13.2" cy="12.2" r="2" class="st0"/><path d="M13.2 17.2c.6 0 1 .4 1 1s-.4 1-1 1-1-.4-1-1 .5-1 1-1m0-1c-1.1 0-2 .9-2 2s.9 2 2 2 2-.9 2-2-.8-2-2-2z" class="st0"/><circle cx="7.2" cy="6.2" r="2" class="st0"/><path d="M7.2 11.2c.6 0 1 .4 1 1s-.4 1-1 1-1-.4-1-1 .5-1 1-1m0-1c-1.1 0-2 .9-2 2s.9 2 2 2 2-.9 2-2-.8-2-2-2z" class="st0"/><circle cx="7.2" cy="18.2" r="2" class="st0"/></g></svg>