<svg xmlns="http://www.w3.org/2000/svg" width="26.5" height="24.5" version="1.1" xml:space="preserve"><rect id="backgroundrect" width="100%" height="100%" x="0" y="0" fill="none" stroke="none"/><g class="currentLayer"><title>Layer 1</title><path id="svg_1" fill="#fff" fill-opacity="1" d="M3.8 24.5H0V0h3.8v1.5H1.5V23h2.3zM26.5 24.5h-3.7V23H25V1.5h-2.2V0h3.7z" class="st0"/><g id="svg_2" fill="#fff" fill-opacity="1"><path id="svg_3" fill="#fff" fill-opacity="1" d="M19.2 5.2c.6 0 1 .4 1 1s-.4 1-1 1-1-.4-1-1 .5-1 1-1m0-1c-1.1 0-2 .9-2 2s.9 2 2 2 2-.9 2-2-.8-2-2-2zM19.2 11.2c.6 0 1 .4 1 1s-.4 1-1 1-1-.4-1-1 .5-1 1-1m0-1c-1.1 0-2 .9-2 2s.9 2 2 2 2-.9 2-2-.8-2-2-2zM19.2 17.2c.6 0 1 .4 1 1s-.4 1-1 1-1-.4-1-1 .5-1 1-1m0-1c-1.1 0-2 .9-2 2s.9 2 2 2 2-.9 2-2-.8-2-2-2zM13.2 5.2c.6 0 1 .4 1 1s-.4 1-1 1-1-.4-1-1 .5-1 1-1m0-1c-1.1 0-2 .9-2 2s.9 2 2 2 2-.9 2-2-.8-2-2-2z" class="st0"/><circle id="svg_4" cx="13.2" cy="12.2" r="2" fill="#fff" fill-opacity="1" class="st0"/><path id="svg_5" fill="#fff" fill-opacity="1" d="M13.2 17.2c.6 0 1 .4 1 1s-.4 1-1 1-1-.4-1-1 .5-1 1-1m0-1c-1.1 0-2 .9-2 2s.9 2 2 2 2-.9 2-2-.8-2-2-2z" class="st0"/><circle id="svg_6" cx="7.2" cy="6.2" r="2" fill="#fff" fill-opacity="1" class="st0"/><path id="svg_7" fill="#fff" fill-opacity="1" d="M7.2 11.2c.6 0 1 .4 1 1s-.4 1-1 1-1-.4-1-1 .5-1 1-1m0-1c-1.1 0-2 .9-2 2s.9 2 2 2 2-.9 2-2-.8-2-2-2z" class="st0"/><circle id="svg_8" cx="7.2" cy="18.2" r="2" fill="#fff" fill-opacity="1" class="st0"/></g></g></svg>