<svg xmlns="http://www.w3.org/2000/svg" width="29.5" height="28.5" version="1.1" xml:space="preserve"><rect id="backgroundrect" width="100%" height="100%" x="0" y="0" fill="none" stroke="none"/><g class="currentLayer"><title>Layer 1</title><path id="svg_1" fill="#fff" fill-opacity="1" d="M15.9 13.5l4.6 2.6 5.2-6.6-1.2-1-4.3 5.7-4.8-2.6-4.1 5.5-2.2-1.7-.9 1.2 3.4 2.6z" class="st0 selected"/><path id="svg_2" fill="#fff" fill-opacity="1" d="M25.318367348611353,20.918367348611355 l-1,1.2 l1.9,1.7000000000000002 H4.418367348611355 V3.2183673486113547 l1.7000000000000002,2 l1.1,-1.1 l-3.6,-4 l-3.6,4 l1.1,1.1 l1.8,-2 v20.6 H1.618367348611355 v1.5 H2.918367348611355 v1.3 h1.5 v-1.3 h21.8 l-1.9,1.7000000000000002 l1,1.2 l4,-3.6 z" class="st0"/></g></svg>